<svg width="24" height="24" viewBox="0 0 24 24" fill="none" xmlns="http://www.w3.org/2000/svg">
<path d="M11.7656 13.3408C11.7656 13.403 11.7903 13.4626 11.8343 13.5065C11.8782 13.5505 11.9378 13.5752 12 13.5752C12.0622 13.5752 12.1218 13.5505 12.1657 13.5065C12.2097 13.4626 12.2344 13.403 12.2344 13.3408C12.2344 13.2787 12.2097 13.219 12.1657 13.1751C12.1218 13.1311 12.0622 13.1064 12 13.1064C11.9378 13.1064 11.8782 13.1311 11.8343 13.1751C11.7903 13.219 11.7656 13.2787 11.7656 13.3408Z" fill="#083156" fill-opacity="0.5"/>
<path d="M14.3391 14.4631H9.52734L2.53125 9.14746V9.61855L9.39844 14.8381H14.4609L21.4688 9.60449V9.13574L14.3391 14.4631Z" fill="#083156" fill-opacity="0.5"/>
<path d="M16.5 6.01855V3.80371H7.5V6.01855H1.5V20.1982H22.5V6.01855H16.5ZM8.53125 4.83496H15.4688V6.01621H8.53125V4.83496ZM21.4688 19.167H2.53125V18.0232H21.4688V19.167ZM21.4688 17.6459H2.53125V7.0498H21.4688V17.6459Z" fill="#083156" fill-opacity="0.5"/>
</svg>
