<svg width="23" height="19" viewBox="0 0 23 19" fill="none" xmlns="http://www.w3.org/2000/svg">
<path d="M13.5 18.5C15.28 18.5 17.0201 17.9722 18.5001 16.9832C19.9802 15.9943 21.1337 14.5887 21.8149 12.9442C22.4961 11.2996 22.6743 9.49002 22.3271 7.74419C21.9798 5.99836 21.1226 4.39472 19.864 3.13604C18.6053 1.87737 17.0016 1.0202 15.2558 0.672937C13.51 0.32567 11.7004 0.5039 10.0558 1.18509C8.41131 1.86628 7.00571 3.01983 6.01677 4.49987C5.02784 5.97991 4.5 7.71997 4.5 9.5V14.15L1.8 11.45L0.75 12.5L5.25 17L9.75 12.5L8.7 11.45L6 14.15V9.5C6 8.01664 6.43987 6.5666 7.26398 5.33323C8.08809 4.09986 9.25943 3.13856 10.6299 2.57091C12.0003 2.00325 13.5083 1.85473 14.9632 2.14411C16.418 2.4335 17.7544 3.14781 18.8033 4.1967C19.8522 5.2456 20.5665 6.58197 20.8559 8.03683C21.1453 9.49168 20.9968 10.9997 20.4291 12.3701C19.8614 13.7406 18.9001 14.9119 17.6668 15.736C16.4334 16.5601 14.9834 17 13.5 17V18.5Z" fill="#FF0000"/>
</svg>
