<svg width="25" height="24" viewBox="0 0 25 24" fill="none" xmlns="http://www.w3.org/2000/svg">
<path d="M9.28613 10L12.5442 12.4436C12.9627 12.7574 13.5523 12.6957 13.8968 12.3021L20.2861 5" stroke="#4CAF50" stroke-width="2" stroke-linecap="round"/>
<path d="M21.2861 12C21.2861 13.8805 20.6971 15.7137 19.6017 17.2423C18.5064 18.7709 16.9597 19.9179 15.1791 20.5224C13.3984 21.1268 11.4731 21.1583 9.67357 20.6125C7.87405 20.0666 6.29072 18.9707 5.14595 17.4789C4.00118 15.987 3.35248 14.174 3.29095 12.2945C3.22942 10.415 3.75816 8.56344 4.8029 6.99987C5.84765 5.4363 7.35592 4.23925 9.11588 3.57685C10.8758 2.91444 12.7991 2.81996 14.6155 3.30667" stroke="#4CAF50" stroke-width="2" stroke-linecap="round"/>
</svg>
