<svg width="24" height="24" viewBox="0 0 24 24" fill="none" xmlns="http://www.w3.org/2000/svg">
<path fill-rule="evenodd" clip-rule="evenodd" d="M22 4V20H2V4H22ZM20 6H4V18H20V6ZM18 14V15.5H13V14H18ZM8.875 11.3C10.32 11.3 11.5 12.5 11.5 14H5.5C5.5 12.5 6.67525 11.3 8.125 11.3H8.875ZM18 11V12.5H13V11H18ZM8.5 7.68561C9.22487 7.68561 9.8125 8.27323 9.8125 8.99811C9.8125 9.72298 9.22487 10.3106 8.5 10.3106C7.77513 10.3106 7.1875 9.72298 7.1875 8.99811C7.1875 8.27323 7.77513 7.68561 8.5 7.68561ZM18 8V9.5H13V8H18Z" fill="#083156" fill-opacity="0.5"/>
</svg>
