<svg width="72" height="71" viewBox="0 0 72 71" fill="none" xmlns="http://www.w3.org/2000/svg">
<rect x="0.666748" width="71" height="71" rx="8" fill="#007AFF" fill-opacity="0.13"/>
<g clip-path="url(#clip0_205_5048)">
<path d="M61.1667 50.125C61.1667 47.9702 60.3449 45.9033 58.8792 44.379C57.4136 42.8548 55.4261 42 53.3542 42C46.9386 42 37.8949 42 31.4792 42C29.4074 42 27.4199 42.8548 25.9542 44.379C24.4886 45.9033 23.6667 47.9702 23.6667 50.125C23.6667 55.4777 23.6667 58.25 23.6667 58.25H61.1667C61.1667 58.25 61.1667 55.4777 61.1667 50.125ZM20.5417 51.75H11.1667C11.1667 51.75 11.1667 48.9777 11.1667 43.625C11.1667 41.4702 11.9886 39.4033 13.4542 37.879C14.9199 36.3548 16.9074 35.5 18.9792 35.5H31.5917C32.273 36.722 33.1386 37.8205 34.1511 38.75H31.4792C25.4386 38.75 20.5417 43.8428 20.5417 50.125V51.75ZM42.4167 19.25C47.5917 19.25 51.7917 23.618 51.7917 29C51.7917 34.382 47.5917 38.75 42.4167 38.75C37.2417 38.75 33.0417 34.382 33.0417 29C33.0417 23.618 37.2417 19.25 42.4167 19.25ZM30.3105 32.2403C30.1792 32.2468 30.048 32.25 29.9167 32.25C24.7417 32.25 20.5417 27.882 20.5417 22.5C20.5417 17.118 24.7417 12.75 29.9167 12.75C33.123 12.75 35.9542 14.427 37.6449 16.9815C33.1105 18.9348 29.9167 23.5822 29.9167 29C29.9167 30.118 30.0542 31.2068 30.3105 32.2403Z" fill="#007AFF"/>
</g>
<defs>
<clipPath id="clip0_205_5048">
<rect width="50" height="52" fill="white" transform="translate(11.1667 9.5)"/>
</clipPath>
</defs>
</svg>
