<svg width="24" height="24" viewBox="0 0 24 24" fill="none" xmlns="http://www.w3.org/2000/svg">
<g clip-path="url(#clip0_314_2187)">
<path d="M20 10V7C20 5.89543 19.1046 5 18 5H6C4.89543 5 4 5.89543 4 7V10M20 10V19C20 20.1046 19.1046 21 18 21H6C4.89543 21 4 20.1046 4 19V10M20 10H4M8 3V7M16 3V7" stroke="#083156" stroke-opacity="0.5" stroke-linecap="round"/>
<path d="M8.5 12H6.5C6.22386 12 6 12.2239 6 12.5V14.5C6 14.7761 6.22386 15 6.5 15H8.5C8.77614 15 9 14.7761 9 14.5V12.5C9 12.2239 8.77614 12 8.5 12Z" fill="#083156" fill-opacity="0.5"/>
<path d="M13 12H11C10.7239 12 10.5 12.2239 10.5 12.5V14.5C10.5 14.7761 10.7239 15 11 15H13C13.2761 15 13.5 14.7761 13.5 14.5V12.5C13.5 12.2239 13.2761 12 13 12Z" fill="#083156" fill-opacity="0.5"/>
<path d="M17.5 12H15.5C15.2239 12 15 12.2239 15 12.5V14.5C15 14.7761 15.2239 15 15.5 15H17.5C17.7761 15 18 14.7761 18 14.5V12.5C18 12.2239 17.7761 12 17.5 12Z" fill="#083156" fill-opacity="0.5"/>
</g>
<defs>
<clipPath id="clip0_314_2187">
<rect width="18" height="20" fill="white" transform="translate(3 2)"/>
</clipPath>
</defs>
</svg>
