<svg width="60" height="61" viewBox="0 0 60 61" fill="none" xmlns="http://www.w3.org/2000/svg">
<g clip-path="url(#clip0_186_2763)">
<rect y="0.5" width="60" height="60" rx="8" fill="#FFBB38" fill-opacity="0.13"/>
<path d="M38.3217 48.3933C37.5858 48.724 36.8223 49.0112 36.052 49.2475C35.3948 49.449 35.0254 50.145 35.2269 50.8023C35.391 51.338 35.8838 51.6824 36.4165 51.6824C36.5374 51.6824 36.6603 51.6647 36.7818 51.6274C37.6505 51.361 38.5119 51.0369 39.342 50.6639C39.969 50.3821 40.2489 49.6454 39.9671 49.0185C39.6854 48.3915 38.9485 48.1117 38.3217 48.3933Z" fill="#FFBB38"/>
<path d="M25.9588 11.3543C26.0448 11.3543 26.1323 11.3454 26.2197 11.3267C27.0069 11.1586 27.814 11.0385 28.6183 10.9692C29.3032 10.9103 29.8106 10.3074 29.7517 9.6224C29.6927 8.93756 29.0905 8.43049 28.4049 8.48896C27.498 8.56701 26.5879 8.70272 25.7002 8.89209C25.0279 9.03553 24.5994 9.69682 24.7427 10.3691C24.8675 10.9539 25.384 11.3543 25.9588 11.3543Z" fill="#FFBB38"/>
<path d="M34.3679 11.3173C35.1571 11.4839 35.9438 11.7019 36.706 11.9655C36.8408 12.0121 36.978 12.0342 37.113 12.0342C37.6287 12.0342 38.1112 11.7108 38.2892 11.196C38.5139 10.5464 38.1693 9.8376 37.5196 9.61296C36.6597 9.31542 35.7723 9.06956 34.8818 8.88159C34.2086 8.73956 33.5489 9.16999 33.4069 9.84253C33.265 10.5149 33.6952 11.1753 34.3679 11.3173Z" fill="#FFBB38"/>
<path d="M18.0534 14.8939C18.3078 14.8939 18.5646 14.8161 18.786 14.6547C19.4378 14.1791 20.1257 13.7394 20.8299 13.3482C21.4308 13.0144 21.6474 12.2566 21.3135 11.6557C20.9796 11.0547 20.2221 10.8381 19.621 11.1721C18.8275 11.6128 18.0528 12.108 17.3185 12.6437C16.7632 13.0488 16.6415 13.8275 17.0466 14.3829C17.2905 14.7169 17.6692 14.8939 18.0534 14.8939Z" fill="#FFBB38"/>
<path d="M30.3612 50.1037C30.3594 50.1037 30.3578 50.1037 30.356 50.1037H30.3154C29.5062 50.1037 28.6913 50.0536 27.8931 49.9549C27.2106 49.8701 26.5894 50.3553 26.5051 51.0374C26.4208 51.7196 26.9055 52.3411 27.5876 52.4254C28.4868 52.5365 29.4045 52.5929 30.3153 52.5929H30.3659C31.0532 52.5903 31.6083 52.0307 31.6056 51.3433C31.6029 50.6576 31.0463 50.1037 30.3612 50.1037Z" fill="#FFBB38"/>
<path d="M22.3481 48.411C21.6121 48.0823 20.8888 47.7036 20.1981 47.2855C19.61 46.9296 18.8449 47.1177 18.4888 47.7059C18.1329 48.294 18.3211 49.0592 18.9092 49.4151C19.6878 49.8864 20.5033 50.3132 21.3329 50.6837C21.4977 50.7574 21.6701 50.7922 21.8398 50.7922C22.3159 50.7922 22.7703 50.5175 22.9769 50.0549C23.2572 49.4275 22.9757 48.6913 22.3481 48.411Z" fill="#FFBB38"/>
<path d="M50.5401 35.7214C49.8861 35.5098 49.1843 35.8684 48.9726 36.5224C48.7245 37.2893 48.4254 38.0488 48.0832 38.7799C47.7918 39.4025 48.0604 40.1434 48.6829 40.4348C48.8536 40.5146 49.033 40.5525 49.2096 40.5525C49.6779 40.5525 50.1263 40.2872 50.3377 39.8351C50.7236 39.0107 51.0611 38.154 51.3411 37.2891C51.5527 36.6349 51.1942 35.9332 50.5401 35.7214Z" fill="#FFBB38"/>
<path d="M14.2451 41.715C13.8507 41.1519 13.0747 41.015 12.5116 41.4091C11.9485 41.8034 11.8117 42.5795 12.2058 43.1426C12.7265 43.8862 13.2991 44.6055 13.9077 45.2805C14.1535 45.5531 14.4922 45.6916 14.8324 45.6916C15.1295 45.6916 15.4276 45.5858 15.6656 45.3713C16.1762 44.9109 16.2167 44.124 15.7563 43.6134C15.2161 43.0143 14.7075 42.3753 14.2451 41.715Z" fill="#FFBB38"/>
<path d="M46.6593 43.4884C46.148 43.0294 45.361 43.0714 44.9018 43.583C44.3627 44.1833 43.7809 44.7565 43.1722 45.2864C42.6537 45.7378 42.5995 46.5241 43.0509 47.0425C43.297 47.3251 43.6426 47.4697 43.99 47.4697C44.28 47.4697 44.5712 47.3691 44.8069 47.1637C45.4921 46.567 46.1472 45.9218 46.754 45.2461C47.2132 44.7345 47.1707 43.9477 46.6593 43.4884Z" fill="#FFBB38"/>
<path d="M59.8332 27.5045L49.6313 9.83428C49.4604 9.53815 49.1751 9.32545 48.8425 9.24588C48.51 9.16654 48.1593 9.22736 47.8729 9.41428L47.5526 9.62334C42.7118 5.61189 36.6815 3.42822 30.3152 3.42822C23.084 3.42822 16.2857 6.24412 11.1726 11.3572C9.99074 12.5391 8.93476 13.8127 8.00511 15.1595L6.84531 14.8511C6.18191 14.6746 5.50082 15.0688 5.32316 15.7319L0.0424574 35.4406C-0.0432067 35.7598 0.00191052 36.1 0.167379 36.3862C0.332965 36.6722 0.605426 36.8808 0.924762 36.9656L4.2475 37.8491C5.48523 42.2646 7.8414 46.3111 11.1726 49.6425C16.2858 54.7557 23.0841 57.5715 30.3152 57.5715C37.5462 57.5715 44.3445 54.7557 49.4577 49.6425C54.5692 44.5309 57.3849 37.7352 57.3866 30.5067L59.4357 29.1693C59.9891 28.8079 60.1637 28.0769 59.8332 27.5045ZM30.3153 5.91775C35.9723 5.91775 41.1879 7.83986 45.3467 11.0636L41.2442 13.7419C40.6908 14.1032 40.5162 14.8341 40.8468 15.4065L41.1939 16.0078L39.0573 17.2415C38.2962 17.6809 37.4464 17.8307 36.3883 17.7108L26.7739 15.1567C25.1631 14.7249 23.4937 15.6444 22.8912 17.2953C22.8705 17.3526 22.8536 17.4113 22.8414 17.471C22.6847 18.2317 22.7104 18.9881 22.8871 19.6926L22.7702 19.6612C21.5488 19.3338 20.2451 19.276 18.9999 19.4933C18.1089 19.6492 17.1761 19.6075 16.3022 19.3733L13.9191 18.7347L14.0972 18.0697C14.1829 17.7505 14.1378 17.4103 13.9723 17.1242C13.8067 16.8381 13.5343 16.6295 13.2149 16.5447L10.5933 15.8475C15.0775 9.82643 22.2474 5.91775 30.3153 5.91775ZM45.9469 26.9862C45.4558 26.1358 44.6652 25.5278 43.7209 25.2749L26.8738 20.744C25.7534 20.4437 25.0598 19.2818 25.2609 18.0713C25.4109 17.739 25.7309 17.4545 26.1318 17.5617C26.1318 17.5617 35.9432 20.1642 35.9987 20.1712C37.6376 20.376 39.0449 20.1228 40.3015 19.3971L42.4381 18.1635L49.4678 30.3394L46.5964 31.7228C46.3525 31.4353 46.064 31.1831 45.7367 30.9798C45.9962 30.6258 46.1956 30.2188 46.3159 29.7695C46.5692 28.8252 46.4379 27.8367 45.9469 26.9862ZM29.7351 34.1475L40.8466 37.1249C41.3066 37.38 41.5533 37.9268 41.4102 38.4611C41.2443 39.0803 40.6056 39.4489 39.9863 39.2831L27.7802 36.0496C27.1162 35.8716 26.4337 36.2657 26.2557 36.9297C26.0777 37.5937 26.4718 38.2762 27.1357 38.4542L37.6246 41.2647C38.0848 41.5198 38.3317 42.0666 38.1886 42.601C38.1082 42.901 37.9159 43.1516 37.6469 43.3069C37.378 43.4621 37.0649 43.5034 36.7647 43.423L17.654 38.3023C16.8302 38.0815 16.0725 37.7021 15.4022 37.1746L15.2532 37.0574C14.3166 36.3203 13.2578 35.79 12.1066 35.4817L9.61058 34.8129L13.2745 21.1394L15.6575 21.7779C16.8786 22.105 18.1824 22.1631 19.4277 21.9457C20.3189 21.7901 21.2518 21.8316 22.1254 22.0657L43.0768 27.6797C43.7056 27.8482 44.0801 28.4969 43.9091 29.1341C43.7417 29.7581 43.1148 30.1142 42.4817 29.946L42.479 29.9453C42.3816 29.9192 32.5635 27.3255 32.5635 27.3255C31.8992 27.1474 31.2171 27.5417 31.0391 28.2055C30.8611 28.8695 31.2552 29.552 31.9192 29.73L44.1079 32.9589C44.7368 33.1274 45.1114 33.776 44.9428 34.4048C44.7771 35.0239 44.1378 35.3929 43.519 35.2267L30.3793 31.743C29.7146 31.5646 29.0328 31.9592 28.8549 32.623C28.677 33.287 29.0711 33.9695 29.7351 34.1475ZM2.76965 34.8803L7.40629 17.5762L11.3694 18.6299L6.73293 35.934L2.76965 34.8803ZM30.3153 55.0823C19.6008 55.0823 10.4658 48.1919 7.10781 38.6097L7.2939 38.6592C7.40101 38.6877 7.50859 38.7013 7.61453 38.7013C8.16414 38.7013 8.66699 38.3344 8.81605 37.7785L8.9664 37.2174L11.4624 37.8862C12.2861 38.1068 13.0436 38.4862 13.714 39.0139L13.8631 39.131C14.7995 39.868 15.8583 40.3982 17.0097 40.7067L36.1205 45.8275C36.435 45.9117 36.7544 45.9536 37.0717 45.9536C37.7045 45.9536 38.329 45.7876 38.8916 45.4627C39.7364 44.9751 40.3408 44.1873 40.5932 43.2451C40.7242 42.756 40.7499 42.2631 40.6839 41.7907C42.1366 41.6301 43.4144 40.6 43.8147 39.1054C43.9362 38.6521 43.967 38.1954 43.9185 37.7549C45.4919 37.7114 46.9199 36.645 47.3475 35.0489C47.4357 34.7202 47.4735 34.39 47.4702 34.0651L50.7161 32.5012L51.0484 33.0767C51.4973 33.8872 52.6027 33.6298 52.8068 33.4967L54.838 32.1707C53.976 44.9488 43.3082 55.0823 30.3153 55.0823ZM52.547 30.6933L43.5917 15.1821L48.1328 12.2175L57.0882 27.7287L52.547 30.6933Z" fill="#FFBB38"/>
</g>
<defs>
<clipPath id="clip0_186_2763">
<rect y="0.5" width="60" height="60" rx="8" fill="white"/>
</clipPath>
</defs>
</svg>
