<svg width="24" height="24" viewBox="0 0 24 24" fill="none" xmlns="http://www.w3.org/2000/svg">
<path d="M20.8932 6.39981L11.7507 15.9398C10.8403 16.8898 8.13779 17.3298 7.53404 16.6998C6.93029 16.0698 7.34238 13.2498 8.25279 12.2998L17.4049 2.74978C17.6306 2.49284 17.9038 2.2863 18.2082 2.1426C18.5125 1.9989 18.8415 1.921 19.1755 1.91366C19.5094 1.90633 19.8414 1.96967 20.1512 2.09988C20.461 2.23009 20.7424 2.42449 20.9782 2.67129C21.2141 2.91809 21.3996 3.21219 21.5235 3.53585C21.6474 3.85952 21.7073 4.20602 21.6994 4.55447C21.6914 4.90292 21.6158 5.24611 21.4773 5.56326C21.3388 5.88041 21.1401 6.165 20.8932 6.39981Z" stroke="#4CAF50" stroke-linecap="round" stroke-linejoin="round"/>
<path d="M11.0416 4H6.24996C5.23329 4 4.25833 4.42142 3.53944 5.17157C2.82055 5.92172 2.41663 6.93913 2.41663 8V18C2.41663 19.0609 2.82055 20.0783 3.53944 20.8284C4.25833 21.5786 5.23329 22 6.24996 22H16.7916C18.9095 22 19.6666 20.2 19.6666 18V13" stroke="#4CAF50" stroke-linecap="round" stroke-linejoin="round"/>
</svg>
