<svg width="25" height="24" viewBox="0 0 25 24" fill="none" xmlns="http://www.w3.org/2000/svg">
<g clip-path="url(#clip0_367_7385)">
<path fill-rule="evenodd" clip-rule="evenodd" d="M11.5252 0.0225257C11.4487 0.0315257 11.1877 0.0585257 10.9462 0.0825257C8.13674 0.363026 5.30624 1.81203 3.39224 3.95103C1.27574 6.31653 0.200237 9.25203 0.299237 12.3795C0.471737 17.781 4.18424 22.3545 9.45074 23.6565C12.5392 24.42 15.9352 23.8755 18.6262 22.1865C21.3112 20.499 23.1907 17.8995 23.9422 14.8305C24.2002 13.779 24.2602 13.2435 24.2602 12C24.2602 10.7565 24.2002 10.221 23.9422 9.16953C22.7542 4.31703 18.7582 0.747026 13.7857 0.0960257C13.3597 0.0405257 11.8102 -0.00897427 11.5252 0.0225257ZM13.5652 2.34453C15.2362 2.56053 16.8007 3.20403 18.2017 4.25103C18.6952 4.62003 19.6657 5.59053 20.0347 6.08403C20.8762 7.21053 21.4987 8.53503 21.7807 9.80253C22.1017 11.25 22.1017 12.75 21.7807 14.1975C21.1597 16.989 19.1932 19.467 16.5862 20.742C15.6442 21.2025 14.6722 21.504 13.6057 21.666C12.9697 21.7635 11.6017 21.7635 10.9657 21.666C8.04374 21.222 5.57774 19.6275 4.02524 17.1765C3.70424 16.671 3.28424 15.789 3.07424 15.1785C2.71274 14.133 2.55674 13.1715 2.55674 12C2.55674 10.4415 2.85824 9.11253 3.52574 7.74003C4.03574 6.69303 4.55474 5.97003 5.40524 5.11953C6.25574 4.26903 6.97874 3.75003 8.02574 3.24003C9.75524 2.39853 11.6362 2.09553 13.5652 2.34453ZM11.8447 6.43503C11.5087 6.54453 11.3182 6.73653 11.2252 7.05753C11.1712 7.24053 11.1652 7.65903 11.1742 10.224C11.1862 13.179 11.1862 13.1805 11.2732 13.344C11.3827 13.5495 11.5927 13.7355 11.7922 13.806C11.9902 13.875 12.5812 13.875 12.7792 13.806C12.9787 13.7355 13.1887 13.5495 13.2982 13.344C13.3852 13.1805 13.3852 13.179 13.3972 10.224C13.4092 6.99603 13.4092 6.99303 13.1797 6.72153C12.9937 6.49953 12.7942 6.42603 12.3457 6.41403C12.1252 6.40803 11.9002 6.41703 11.8447 6.43503ZM11.9647 15.795C11.6812 15.888 11.4007 16.1295 11.2642 16.398C11.1592 16.608 11.1412 16.9875 11.2267 17.2425C11.3677 17.67 11.8312 18 12.2857 18C12.7402 18 13.2037 17.67 13.3447 17.2425C13.4302 16.9875 13.4122 16.608 13.3072 16.398C13.2097 16.206 12.9757 15.969 12.7852 15.87C12.6112 15.78 12.1417 15.7365 11.9647 15.795Z" fill="#FF0000"/>
</g>
<defs>
<clipPath id="clip0_367_7385">
<rect width="24" height="24" fill="white" transform="translate(0.286133)"/>
</clipPath>
</defs>
</svg>
