<svg width="24" height="24" viewBox="0 0 24 24" fill="none" xmlns="http://www.w3.org/2000/svg">
<path fill-rule="evenodd" clip-rule="evenodd" d="M9.56273 2.37068C-0.454025 5.18918 -0.377025 19.0094 9.66998 21.6264C10.4592 21.8319 11.5315 22.0002 12.0525 22.0002H13V19.3002C13 16.3774 12.8545 16.0002 11.7262 16.0002C11.1227 16.0002 11.0425 15.8959 10.9572 15.0002L10.8617 14.0002H13V12.0002H8.99998V11.0002C8.99998 10.1562 9.08048 10.0002 9.51648 10.0002C10.6262 10.0002 11 9.55718 11 8.24143V7.00018H12.1415C13.0845 7.00018 14.0052 6.74593 14.4605 6.35993C14.5075 6.31993 14.6845 5.88493 14.8537 5.39268L15.1612 4.49818L16.3437 5.28143C18.359 6.61618 20 9.34968 20 11.3714C20 12.1614 21.6775 13.7297 21.9007 13.1484C22.3875 11.8794 21.3927 8.08093 20.0745 6.17543C17.9117 3.04993 13.2042 1.34593 9.56273 2.37068ZM9.21723 4.47643C7.79647 5.03218 6.50148 5.99843 5.60923 7.16818L4.93473 8.05243L5.96723 9.08518L6.99998 10.1179V9.35893C6.99998 8.41393 7.39573 8.00018 8.29998 8.00018C8.96123 8.00018 8.99998 7.93893 8.99998 6.89293C8.99998 5.33493 9.42322 5.00018 11.3927 5.00018C12.8332 5.00018 13 4.94843 13 4.50018C13 3.83493 10.891 3.82168 9.21723 4.47643ZM4.10223 10.5939C3.81373 11.3464 4.16098 14.1019 4.69748 15.3147C5.60698 17.3707 8.03798 19.3357 10.3125 19.8532C11.384 20.0969 11.3567 18.2087 10.2825 17.7637C9.48973 17.4352 8.99998 16.5884 8.99998 15.5459C8.99998 14.6009 4.36348 9.91318 4.10223 10.5939ZM15 15.0069V19.8104L16.1387 18.8774C16.765 18.3642 17.3147 17.9849 17.36 18.0347C17.4055 18.0844 17.8632 19.0979 18.3772 20.2872L19.3115 22.4489L20.2182 22.0727C20.717 21.8657 21.203 21.6494 21.2982 21.5922C21.3935 21.5352 21.028 20.5234 20.4857 19.3444C19.9435 18.1652 19.5 17.1554 19.5 17.1002C19.5 17.0452 20.0885 17.0002 20.8075 17.0002H22.115L19.745 14.6072C18.4415 13.2909 16.8405 11.7617 16.1875 11.2089L15 10.2037V15.0069Z" fill="#007AFF"/>
</svg>
