<svg width="24" height="24" viewBox="0 0 24 24" fill="none" xmlns="http://www.w3.org/2000/svg">
<g clip-path="url(#clip0_186_2709)">
<path fill-rule="evenodd" clip-rule="evenodd" d="M12 11.25C10.7572 11.25 9.75 10.2428 9.75 9C9.75 7.75725 10.7572 6.75 12 6.75C13.2428 6.75 14.25 7.75725 14.25 9C14.25 10.2428 13.2428 11.25 12 11.25ZM12 5.25C9.92925 5.25 8.25 6.9285 8.25 9C8.25 11.0715 9.92925 12.75 12 12.75C14.0708 12.75 15.75 11.0715 15.75 9C15.75 6.9285 14.0708 5.25 12 5.25ZM12 21.75C10.7527 21.7568 4.5 12.1357 4.5 9C4.5 4.8585 7.85775 1.5 12 1.5C16.1423 1.5 19.5 4.8585 19.5 9C19.5 12.0938 13.2277 21.7568 12 21.75ZM12 0C7.02975 0 3 4.02975 3 9C3 12.7635 10.5037 24.0082 12 24C13.473 24.0082 21 12.7125 21 9C21 4.02975 16.9703 0 12 0Z" fill="#083156" fill-opacity="0.5"/>
</g>
<defs>
<clipPath id="clip0_186_2709">
<rect width="24" height="24" fill="white"/>
</clipPath>
</defs>
</svg>
