<svg width="24" height="25" viewBox="0 0 24 25" fill="none" xmlns="http://www.w3.org/2000/svg">
<path fill-rule="evenodd" clip-rule="evenodd" d="M14.25 8C14.664 8 15 7.66475 15 7.25V4.25C15 3.83525 14.664 3.5 14.25 3.5C13.836 3.5 13.5 3.83525 13.5 4.25V7.25C13.5 7.66475 13.836 8 14.25 8ZM22.5 21.5C22.5 22.328 21.828 23 21 23H3C2.172 23 1.5 22.328 1.5 21.5V3.5C1.5 2.672 2.172 2 3 2H4.5V9.5C4.5 10.328 5.172 11 6 11H18C18.828 11 19.5 10.328 19.5 9.5V2H21C21.828 2 22.5 2.672 22.5 3.5V21.5ZM6 2H18V8.75C18 9.16475 17.664 9.5 17.25 9.5H6.75C6.336 9.5 6 9.16475 6 8.75V2ZM21 0.5H3C1.34325 0.5 0 1.84325 0 3.5V21.5C0 23.1567 1.34325 24.5 3 24.5H21C22.6567 24.5 24 23.1567 24 21.5V3.5C24 1.84325 22.6567 0.5 21 0.5Z" fill="#4CAF50"/>
</svg>
