<svg width="24" height="24" viewBox="0 0 24 24" fill="none" xmlns="http://www.w3.org/2000/svg">
<g clip-path="url(#clip0_314_2179)">
<path fill-rule="evenodd" clip-rule="evenodd" d="M14.5868 6.58444C14.9487 6.22312 15.4482 5.9997 16 5.9997C17.1046 5.9997 18 6.89513 18 7.9997C18 8.55145 17.7766 9.05102 17.4153 9.41287C16.824 8.17735 15.8223 7.1757 14.5868 6.58444ZM10.2571 6.25677C10.5118 5.41638 10.9459 4.65399 11.5149 4.01416C7.32249 4.26493 4 7.74431 4 11.9997C4 16.418 7.58172 19.9997 12 19.9997C16.2554 19.9997 19.7348 16.6772 19.9855 12.4849C19.3457 13.0538 18.5833 13.488 17.7429 13.7427C16.9962 16.2064 14.7075 17.9997 12 17.9997C8.68629 17.9997 6 15.3134 6 11.9997C6 9.29216 7.79338 7.00349 10.2571 6.25677Z" fill="#083156" fill-opacity="0.5"/>
<path d="M16 12C18.2091 12 20 10.2091 20 8C20 5.79086 18.2091 4 16 4C13.7909 4 12 5.79086 12 8C12 10.2091 13.7909 12 16 12Z" fill="#083156" fill-opacity="0.5"/>
</g>
<defs>
<clipPath id="clip0_314_2179">
<rect width="24" height="24" fill="white"/>
</clipPath>
</defs>
</svg>
