<svg width="73" height="71" viewBox="0 0 73 71" fill="none" xmlns="http://www.w3.org/2000/svg">
<rect x="0.666016" width="72" height="71" rx="8" fill="#FFBB38" fill-opacity="0.15"/>
<path d="M34.166 39.7357C33.4063 39.3092 32.7749 38.6928 32.3356 37.9489C31.8964 37.205 31.6651 36.3602 31.6651 35.5C31.6651 34.6398 31.8964 33.7949 32.3356 33.0511C32.7749 32.3072 33.4063 31.6908 34.166 31.2643V23.2083C34.166 22.5563 34.4294 21.9311 34.8982 21.47C35.3671 21.009 36.003 20.75 36.666 20.75C37.3291 20.75 37.9649 21.009 38.4338 21.47C38.9026 21.9311 39.166 22.5563 39.166 23.2083V31.2643C39.9257 31.6908 40.5572 32.3072 40.9964 33.0511C41.4356 33.7949 41.6669 34.6398 41.6669 35.5C41.6669 36.3602 41.4356 37.205 40.9964 37.9489C40.5572 38.6928 39.9257 39.3092 39.166 39.7357V45.3333C39.166 45.9853 38.9026 46.6106 38.4338 47.0716C37.9649 47.5327 37.3291 47.7917 36.666 47.7917C36.003 47.7917 35.3671 47.5327 34.8982 47.0716C34.4294 46.6106 34.166 45.9853 34.166 45.3333V39.7357ZM36.666 6C36.003 6 35.3671 6.259 34.8982 6.72003C34.4294 7.18106 34.166 7.80634 34.166 8.45833C34.166 9.11032 34.4294 9.73561 34.8982 10.1966C35.3671 10.6577 36.003 10.9167 36.666 10.9167C43.2964 10.9167 49.6553 13.5067 54.3437 18.117C59.0321 22.7272 61.666 28.9801 61.666 35.5C61.666 42.0199 59.0321 48.2728 54.3437 52.883C49.6553 57.4933 43.2964 60.0833 36.666 60.0833C36.003 60.0833 35.3671 60.3423 34.8982 60.8034C34.4294 61.2644 34.166 61.8897 34.166 62.5417C34.166 63.1937 34.4294 63.8189 34.8982 64.28C35.3671 64.741 36.003 65 36.666 65C44.6225 65 52.2531 61.892 57.8792 56.3596C63.5053 50.8273 66.666 43.3239 66.666 35.5C66.666 27.6761 63.5053 20.1727 57.8792 14.6403C52.2531 9.10803 44.6225 6 36.666 6ZM11.2335 22.6773C10.7391 22.6773 10.2557 22.8215 9.84459 23.0916C9.43347 23.3618 9.11304 23.7457 8.92382 24.1949C8.7346 24.6441 8.68509 25.1384 8.78155 25.6153C8.87802 26.0921 9.11612 26.5302 9.46575 26.874C9.81538 27.2178 10.2608 27.4519 10.7458 27.5468C11.2307 27.6416 11.7334 27.5929 12.1902 27.4069C12.647 27.2208 13.0375 26.9057 13.3122 26.5014C13.5869 26.0972 13.7335 25.6219 13.7335 25.1357C13.7335 24.4837 13.4701 23.8584 13.0013 23.3974C12.5324 22.9363 11.8966 22.6773 11.2335 22.6773ZM11.666 35.5C11.666 35.0138 11.5194 34.5385 11.2447 34.1342C10.97 33.7299 10.5795 33.4149 10.1227 33.2288C9.66591 33.0427 9.16324 32.994 8.67829 33.0889C8.19334 33.1838 7.74788 33.4179 7.39825 33.7617C7.04862 34.1055 6.81052 34.5435 6.71405 35.0204C6.61759 35.4973 6.6671 35.9916 6.85632 36.4408C7.04554 36.89 7.36597 37.2739 7.77709 37.544C8.18821 37.8142 8.67156 37.9583 9.16602 37.9583C9.82906 37.9583 10.4649 37.6993 10.9338 37.2383C11.4026 36.7773 11.666 36.152 11.666 35.5ZM17.2185 13.8839C16.7241 13.8839 16.2407 14.0281 15.8296 14.2982C15.4185 14.5683 15.098 14.9522 14.9088 15.4014C14.7196 15.8506 14.6701 16.3449 14.7666 16.8218C14.863 17.2987 15.1011 17.7367 15.4507 18.0805C15.8004 18.4243 16.2458 18.6584 16.7308 18.7533C17.2157 18.8482 17.7184 18.7995 18.1752 18.6134C18.632 18.4273 19.0225 18.1123 19.2972 17.708C19.5719 17.3037 19.7185 16.8284 19.7185 16.3422C19.7185 15.6902 19.4551 15.0649 18.9863 14.6039C18.5174 14.1429 17.8816 13.8839 17.2185 13.8839ZM26.1135 8.06746C25.6191 8.06746 25.1357 8.21164 24.7246 8.48176C24.3135 8.75189 23.993 9.13583 23.8038 9.58503C23.6146 10.0342 23.5651 10.5285 23.6616 11.0054C23.758 11.4823 23.9961 11.9203 24.3457 12.2641C24.6954 12.6079 25.1408 12.842 25.6258 12.9369C26.1107 13.0317 26.6134 12.9831 27.0702 12.797C27.527 12.6109 27.9175 12.2958 28.1922 11.8916C28.4669 11.4873 28.6135 11.012 28.6135 10.5258C28.6135 9.8738 28.3501 9.24851 27.8813 8.78749C27.4124 8.32646 26.7766 8.06746 26.1135 8.06746ZM11.2335 43.406C10.7391 43.406 10.2557 43.5502 9.84459 43.8203C9.43347 44.0904 9.11304 44.4744 8.92382 44.9236C8.7346 45.3728 8.68509 45.8671 8.78155 46.3439C8.87802 46.8208 9.11612 47.2588 9.46575 47.6026C9.81538 47.9464 10.2608 48.1806 10.7458 48.2754C11.2307 48.3703 11.7334 48.3216 12.1902 48.1355C12.647 47.9495 13.0375 47.6344 13.3122 47.2301C13.5869 46.8258 13.7335 46.3505 13.7335 45.8643C13.7335 45.2123 13.4701 44.5871 13.0013 44.126C12.5324 43.665 11.8966 43.406 11.2335 43.406ZM17.2185 52.1995C16.7241 52.1995 16.2407 52.3436 15.8296 52.6138C15.4185 52.8839 15.098 53.2678 14.9088 53.717C14.7196 54.1662 14.6701 54.6605 14.7666 55.1374C14.863 55.6143 15.1011 56.0523 15.4507 56.3961C15.8004 56.7399 16.2458 56.974 16.7308 57.0689C17.2157 57.1637 17.7184 57.1151 18.1752 56.929C18.632 56.7429 19.0225 56.4278 19.2972 56.0236C19.5719 55.6193 19.7185 55.144 19.7185 54.6578C19.7185 54.0058 19.4551 53.3805 18.9863 52.9195C18.5174 52.4585 17.8816 52.1995 17.2185 52.1995ZM26.1135 58.0159C25.6191 58.0159 25.1357 58.16 24.7246 58.4302C24.3135 58.7003 23.993 59.0842 23.8038 59.5334C23.6146 59.9826 23.5651 60.4769 23.6616 60.9538C23.758 61.4307 23.9961 61.8687 24.3457 62.2125C24.6954 62.5563 25.1408 62.7905 25.6258 62.8853C26.1107 62.9802 26.6134 62.9315 27.0702 62.7454C27.527 62.5593 27.9175 62.2443 28.1922 61.84C28.4669 61.4357 28.6135 60.9604 28.6135 60.4742C28.6135 59.8222 28.3501 59.1969 27.8813 58.7359C27.4124 58.2749 26.7766 58.0159 26.1135 58.0159Z" fill="#FFBB38"/>
</svg>
