<svg width="153" height="35" viewBox="0 0 153 35" fill="none" xmlns="http://www.w3.org/2000/svg">
<g clip-path="url(#clip0_171_1556)">
<path d="M10.607 28.5188C10.859 28.7498 11.06 29.0295 11.1974 29.3404C11.3349 29.6513 11.4058 29.9868 11.4058 30.3259C11.4058 30.665 11.3349 31.0004 11.1974 31.3113C11.06 31.6222 10.859 31.9019 10.607 32.1329C10.0741 32.5695 9.3414 32.7891 8.41398 32.7891H6.6488V34.9293H5.62402V27.8626H8.41398C9.3414 27.8525 10.0741 28.0721 10.607 28.5188ZM9.86916 31.502C10.031 31.3504 10.1599 31.1679 10.248 30.9658C10.336 30.7636 10.3814 30.5459 10.3814 30.3259C10.3814 30.1059 10.336 29.8882 10.248 29.686C10.1599 29.4838 10.031 29.3014 9.86916 29.1498C9.4362 28.8494 8.91151 28.7051 8.38323 28.7409H6.6488V31.9007H8.39092C8.91661 31.9348 9.4383 31.7905 9.86916 31.4919V31.502Z" fill="#2B2929"/>
<path d="M24.9819 34.9192L23.4447 32.7487C23.2526 32.7613 23.1014 32.7689 22.9938 32.7689H21.2133V34.9192H20.1885V27.8525H22.9861C23.9135 27.8525 24.6437 28.0713 25.1766 28.5087C25.4422 28.729 25.6527 29.0066 25.7918 29.32C25.9308 29.6334 25.9947 29.9741 25.9785 30.3158C25.9926 30.8109 25.8493 31.298 25.5686 31.7089C25.2819 32.1081 24.8722 32.4055 24.4003 32.5569L26.1014 34.9293L24.9819 34.9192ZM24.4413 31.4969C24.6033 31.3449 24.7323 31.162 24.8204 30.9594C24.9085 30.7568 24.9539 30.5387 24.9539 30.3183C24.9539 30.0979 24.9085 29.8798 24.8204 29.6772C24.7323 29.4746 24.6033 29.2917 24.4413 29.1397C24.0071 28.8399 23.4818 28.6956 22.9528 28.7308H21.2133V31.9108H22.9528C23.4826 31.9458 24.0083 31.7996 24.4413 31.4969Z" fill="#2B2929"/>
<path d="M36.1958 34.5305C35.6273 34.2303 35.1539 33.7815 34.8278 33.2333C34.5005 32.669 34.3287 32.0303 34.3291 31.3805C34.3296 30.7306 34.5023 30.0922 34.8303 29.5283C35.1565 28.9801 35.6299 28.5313 36.1984 28.2311C36.8015 27.9227 37.4711 27.7617 38.1506 27.7617C38.8301 27.7617 39.4997 27.9227 40.1028 28.2311C40.6684 28.5311 41.1398 28.978 41.4657 29.5233C41.788 30.0891 41.9573 30.727 41.9573 31.3758C41.9573 32.0245 41.788 32.6624 41.4657 33.2282C41.1398 33.7735 40.6684 34.2205 40.1028 34.5204C39.4997 34.8288 38.8301 34.9898 38.1506 34.9898C37.4711 34.9898 36.8015 34.8288 36.1984 34.5204L36.1958 34.5305ZM39.5725 33.7481C39.9866 33.5172 40.33 33.1807 40.5665 32.7739C40.8052 32.3491 40.9304 31.8714 40.9304 31.3858C40.9304 30.9003 40.8052 30.4226 40.5665 29.9978C40.33 29.591 39.9866 29.2545 39.5725 29.0236C39.1392 28.7847 38.6496 28.6628 38.1532 28.6702C37.6536 28.6636 37.1608 28.7854 36.7236 29.0236C36.3038 29.2505 35.9561 29.5877 35.7193 29.9978C35.4807 30.4226 35.3555 30.9003 35.3555 31.3858C35.3555 31.8714 35.4807 32.3491 35.7193 32.7739C35.9561 33.184 36.3038 33.5212 36.7236 33.7481C37.1608 33.9863 37.6536 34.1081 38.1532 34.1015C38.6496 34.1089 39.1392 33.987 39.5725 33.7481Z" fill="#2B2929"/>
<path d="M50.7985 27.8528H53.8216C54.5208 27.8402 55.213 27.9925 55.8404 28.297C56.4075 28.5758 56.8821 29.0083 57.2084 29.5437C57.527 30.1071 57.6942 30.7412 57.6942 31.3861C57.6942 32.0309 57.527 32.6651 57.2084 33.2285C56.8815 33.7642 56.4059 34.1967 55.8378 34.4752C55.2104 34.7797 54.5182 34.932 53.819 34.9194H50.7959L50.7985 27.8528ZM53.7601 34.0411C54.2921 34.0527 54.8192 33.9384 55.2972 33.708C55.7235 33.5012 56.0796 33.1768 56.322 32.7742C56.5574 32.3483 56.6808 31.871 56.6808 31.3861C56.6808 30.9011 56.5574 30.4239 56.322 29.998C56.0796 29.5954 55.7235 29.2709 55.2972 29.0642C54.8192 28.8338 54.2921 28.7195 53.7601 28.7311H51.8232V34.031L53.7601 34.0411Z" fill="#2B2929"/>
<path d="M67.2749 34.1923C66.742 33.6556 66.4756 32.8816 66.4756 31.8704V27.8525H67.5004V31.83C67.5004 33.3443 68.1733 34.1015 69.5192 34.1015C69.7964 34.12 70.0744 34.0795 70.3343 33.9828C70.5942 33.8862 70.83 33.7355 71.0256 33.5412C71.3672 33.1677 71.538 32.5973 71.538 31.83V27.8525H72.532V31.8704C72.532 32.8799 72.2656 33.6556 71.7327 34.1974C71.1998 34.7391 70.4551 35.0067 69.4987 34.9999C68.5508 34.9999 67.8095 34.7307 67.2749 34.1923Z" fill="#2B2929"/>
<path d="M83.1843 34.5306C82.6206 34.2298 82.1511 33.783 81.8265 33.2384C81.5042 32.6726 81.335 32.0347 81.335 31.3859C81.335 30.7372 81.5042 30.0993 81.8265 29.5335C82.1524 28.9881 82.6238 28.5412 83.1894 28.2413C83.7874 27.9242 84.4575 27.7626 85.1365 27.7719C85.6623 27.7658 86.1843 27.8601 86.6737 28.0495C87.1301 28.2279 87.5373 28.5097 87.8624 28.8722L87.1963 29.5082C86.939 29.236 86.6261 29.0205 86.2781 28.8761C85.9301 28.7317 85.555 28.6615 85.1775 28.6703C84.673 28.6637 84.1754 28.7854 83.7326 29.0237C83.3113 29.2504 82.9619 29.5876 82.7232 29.9978C82.4845 30.4227 82.3593 30.9004 82.3593 31.3859C82.3593 31.8715 82.4845 32.3491 82.7232 32.774C82.9619 33.1843 83.3113 33.5215 83.7326 33.7482C84.1754 33.9864 84.673 34.1081 85.1775 34.1015C85.5557 34.1087 85.9312 34.0369 86.2792 33.8907C86.6271 33.7445 86.9397 33.5274 87.1963 33.2535L87.8624 33.8895C87.5348 34.2527 87.1261 34.536 86.6686 34.7173C86.1799 34.91 85.6576 35.006 85.1314 35C84.4523 35.0104 83.7818 34.8487 83.1843 34.5306Z" fill="#2B2929"/>
<path d="M97.9458 28.7308H95.4863V27.8525H101.42V28.7308H98.9603V34.9192H97.9355L97.9458 28.7308Z" fill="#2B2929"/>
<path d="M110.248 34.7527C109.812 34.6245 109.408 34.4059 109.064 34.1117L109.444 33.3242C109.752 33.5857 110.109 33.7863 110.494 33.9148C110.916 34.0653 111.362 34.1422 111.811 34.1419C112.275 34.1741 112.738 34.0705 113.143 33.8441C113.278 33.7617 113.39 33.6465 113.467 33.5095C113.544 33.3726 113.584 33.2184 113.584 33.0618C113.588 32.9521 113.569 32.8429 113.527 32.7411C113.486 32.6393 113.423 32.5473 113.343 32.4712C113.173 32.3137 112.97 32.1948 112.749 32.1229C112.513 32.0421 112.18 31.9513 111.749 31.8503C111.306 31.7505 110.869 31.6224 110.443 31.4667C110.115 31.3403 109.823 31.1377 109.592 30.8761C109.343 30.5732 109.217 30.1901 109.239 29.801C109.237 29.4426 109.342 29.0917 109.541 28.7915C109.769 28.4673 110.088 28.2149 110.458 28.0646C110.945 27.8677 111.469 27.7748 111.995 27.7921C112.417 27.7914 112.838 27.8457 113.246 27.9536C113.622 28.0466 113.979 28.2037 114.301 28.418L113.963 29.2256C113.664 29.0375 113.34 28.893 113 28.7965C112.674 28.7007 112.335 28.6515 111.995 28.6502C111.537 28.6185 111.081 28.7278 110.689 28.9631C110.554 29.0515 110.443 29.1716 110.367 29.3126C110.291 29.4536 110.252 29.6111 110.253 29.7707C110.25 29.8815 110.272 29.9916 110.316 30.0935C110.36 30.1954 110.426 30.2867 110.509 30.3613C110.685 30.5197 110.893 30.64 111.119 30.7146C111.444 30.8209 111.774 30.9102 112.108 30.9821C112.55 31.0807 112.985 31.2089 113.41 31.3658C113.735 31.4921 114.024 31.6928 114.255 31.9513C114.503 32.2488 114.629 32.6269 114.608 33.0113C114.611 33.3705 114.504 33.7221 114.301 34.0208C114.069 34.3479 113.745 34.6007 113.369 34.7476C112.88 34.9395 112.357 35.0305 111.831 35.0152C111.293 35.0133 110.758 34.9246 110.248 34.7527Z" fill="#2B2929"/>
<path d="M133.921 34.7527C133.485 34.6245 133.081 34.4059 132.737 34.1117L133.116 33.3242C133.425 33.5857 133.781 33.7862 134.167 33.9148C134.589 34.0653 135.035 34.1422 135.484 34.1419C135.948 34.1741 136.411 34.0705 136.816 33.8441C136.951 33.7617 137.063 33.6465 137.14 33.5095C137.217 33.3726 137.257 33.2184 137.257 33.0618C137.261 32.9521 137.242 32.8429 137.2 32.7411C137.159 32.6393 137.096 32.5473 137.016 32.4712C136.846 32.3137 136.643 32.1948 136.421 32.1229C136.186 32.0421 135.853 31.9513 135.422 31.8503C134.979 31.7505 134.542 31.6224 134.116 31.4667C133.788 31.3403 133.496 31.1377 133.265 30.8761C133.016 30.5732 132.89 30.1901 132.912 29.801C132.91 29.4426 133.015 29.0917 133.214 28.7915C133.442 28.4673 133.761 28.2149 134.131 28.0646C134.618 27.8677 135.142 27.7748 135.668 27.7921C136.09 27.7914 136.511 27.8457 136.918 27.9536C137.295 28.0466 137.652 28.2037 137.974 28.418L137.636 29.2256C137.337 29.0375 137.013 28.893 136.672 28.7965C136.347 28.7007 136.008 28.6515 135.668 28.6502C135.21 28.6185 134.754 28.7278 134.362 28.9631C134.227 29.0515 134.116 29.1716 134.04 29.3126C133.964 29.4536 133.925 29.6111 133.926 29.7707C133.923 29.8815 133.945 29.9916 133.989 30.0935C134.033 30.1954 134.099 30.2867 134.182 30.3613C134.358 30.5197 134.566 30.64 134.792 30.7146C135.117 30.8209 135.447 30.9102 135.781 30.9821C136.212 31.0755 136.637 31.1969 137.052 31.3456C137.377 31.4719 137.666 31.6726 137.897 31.9311C138.145 32.2286 138.271 32.6067 138.251 32.9911C138.253 33.3503 138.146 33.7019 137.943 34.0006C137.711 34.3277 137.387 34.5805 137.011 34.7275C136.522 34.9193 135.999 35.0103 135.473 34.995C134.946 34.9963 134.422 34.9145 133.921 34.7527Z" fill="#2B2929"/>
<path d="M147.043 27.8525H148.068V34.0409H151.952V34.9192H147.043V27.8525Z" fill="#2B2929"/>
<path d="M5.44455 5.80496H0.5V3.46541C0.5 2.71506 0.802578 1.99545 1.34117 1.46488C1.87976 0.934303 2.61025 0.63623 3.37194 0.63623H18.4515V5.80496H13.5044V24.0772H5.44455V5.80496Z" fill="#05668E"/>
<path d="M39.2131 24.481C39.0568 24.587 39.0466 24.6249 38.009 24.6249C33.6742 24.6249 32.1344 25.3543 31.166 21.402L29.1933 15.1859H27.5691V24.0772H19.9883V0.636223H30.4743C32.2592 0.607111 34.0339 0.904925 35.7084 1.5145C37.0813 1.99814 38.2947 2.84095 39.2182 3.95249C40.0409 4.97658 40.4814 6.24806 40.4659 7.55395C40.4659 9.06822 40.0918 10.3453 39.3437 11.3851C38.5957 12.4249 37.4325 13.2712 35.8544 13.924C35.9899 14.7185 36.1747 15.504 36.4078 16.2762C36.6845 17.1393 36.8561 17.8611 37.1097 18.7697M28.868 10.4159C30.5759 10.4159 31.7809 10.2283 32.4829 9.85313C33.1848 9.47792 33.5401 8.83604 33.5486 7.92747C33.5486 7.15519 33.2617 6.5949 32.6853 6.24157C32.1088 5.88824 31.1968 5.7141 29.9517 5.7141H27.5665V10.4159H28.868Z" fill="#05668E"/>
<path d="M41.9834 1.35791H47.0689C47.8389 1.35791 48.5775 1.65909 49.1223 2.19527C49.667 2.73145 49.9734 3.45876 49.9741 4.21737V24.7989H41.9834V1.35791Z" fill="#05668E"/>
<path d="M57.5981 23.0045C55.7377 21.9446 54.1973 20.4158 53.1352 18.5753C52.0343 16.6871 51.464 14.5441 51.4828 12.3667C51.4505 10.1763 51.9989 8.01538 53.0738 6.09761C54.0945 4.27518 55.6003 2.76133 57.4291 1.71882C59.2555 0.664851 61.3256 0.0896309 63.4419 0.048067C65.9091 -0.0528849 66.1345 0.022829 67.3668 0.126305C68.7272 0.239875 70.2388 0.517493 70.4412 0.631064L72.2345 5.44647C71.9911 5.44647 67.3848 5.60799 65.7912 5.71651C65.553 5.73165 68.0253 4.10381 68.0253 4.10381C67.0696 4.10381 65.1789 4.49752 63.5572 5.27485C62.3637 5.81287 61.317 6.62252 60.5034 7.63712C59.5811 8.75264 59.2224 10.3426 59.2224 12.3188C59.2224 14.2486 59.7468 15.7528 60.7955 16.8313C61.8441 17.9098 63.3027 18.4499 65.1712 18.4516C65.886 18.4516 66.7084 18.4213 67.2208 18.4213C67.8587 18.4213 73.3054 18.2547 73.3054 18.2547L73.5155 24.1478C71.7221 24.6526 66.2447 24.6223 63.8698 24.6223C61.6697 24.648 59.5032 24.0891 57.5981 23.0045Z" fill="#05668E"/>
<path d="M110.92 1.66331C112.78 2.72335 114.319 4.25216 115.38 6.09257C116.481 7.98401 117.049 10.131 117.025 12.3112C117.058 14.5017 116.509 16.6625 115.434 18.5803C114.413 20.4027 112.908 21.9166 111.079 22.9591C109.234 24.014 107.377 24.4279 105.079 24.6198C102.94 24.7989 102.417 24.7636 101.154 24.7964C99.7884 24.8292 92.6432 24.6551 92.4434 24.544V18.7191C92.6996 18.7191 97.9336 18.6409 99.5271 18.5324C99.7654 18.5172 96.6501 20.0618 96.6501 20.0618C97.6082 20.0618 103.342 20.1754 104.964 19.3955C106.157 18.8584 107.203 18.0485 108.015 17.0332C108.94 15.9177 109.296 14.3302 109.296 12.3541C109.296 10.4242 108.771 8.91922 107.72 7.83904C106.67 6.75885 105.212 6.2196 103.347 6.22129C102.632 6.22129 101.81 6.24905 101.297 6.25157C100.66 6.25157 93.6757 6.67052 93.6757 6.67052L95.7816 0.782506C97.5749 0.277747 102.284 0.0531291 104.659 0.0531291C106.855 0.0269547 109.017 0.583109 110.92 1.66331Z" fill="#05668E"/>
<path d="M79.3588 17.5255L72.5107 0.59082H79.738L83.0941 11.1201L86.3785 0.59082H93.9875L86.7936 17.5255V24.0318H79.3639L79.3588 17.5255Z" fill="#05668E"/>
<path d="M118.536 0.63623H126.007V18.8984H134.274V24.0772H121.539C120.743 24.0772 119.979 23.766 119.416 23.2118C118.853 22.6576 118.537 21.9059 118.536 21.1219V0.63623Z" fill="#05668E"/>
<path d="M138.704 0.636255H152.367C152.385 0.63592 152.402 0.639001 152.418 0.645319C152.434 0.651637 152.449 0.661065 152.461 0.673051C152.474 0.685036 152.483 0.699339 152.49 0.715122C152.497 0.730905 152.5 0.747851 152.5 0.764969V5.68637C152.5 5.70349 152.497 5.72043 152.49 5.73622C152.483 5.752 152.474 5.7663 152.461 5.77829C152.449 5.79027 152.434 5.7997 152.418 5.80602C152.402 5.81234 152.385 5.81542 152.367 5.81508H144.33C144.296 5.81508 144.262 5.82864 144.238 5.85278C144.213 5.87692 144.2 5.90966 144.2 5.9438V9.94654C144.2 9.98067 144.213 10.0134 144.238 10.0376C144.262 10.0617 144.296 10.0753 144.33 10.0753H151.655C151.69 10.0753 151.723 10.0888 151.747 10.113C151.772 10.1371 151.786 10.1698 151.786 10.204V14.242C151.786 14.2762 151.772 14.3089 151.747 14.3331C151.723 14.3572 151.69 14.3708 151.655 14.3708H144.33C144.296 14.3708 144.262 14.3843 144.238 14.4085C144.213 14.4326 144.2 14.4653 144.2 14.4995V18.7697C144.2 18.8039 144.213 18.8366 144.238 18.8607C144.262 18.8849 144.296 18.8984 144.33 18.8984H152.367C152.385 18.8981 152.402 18.9012 152.418 18.9075C152.434 18.9138 152.449 18.9233 152.461 18.9352C152.474 18.9472 152.483 18.9615 152.49 18.9773C152.497 18.9931 152.5 19.01 152.5 19.0272V23.9486C152.5 23.9657 152.497 23.9826 152.49 23.9984C152.483 24.0142 152.474 24.0285 152.461 24.0405C152.449 24.0525 152.434 24.0619 152.418 24.0682C152.402 24.0745 152.385 24.0776 152.367 24.0773H135.925C135.89 24.0773 135.857 24.0637 135.832 24.0396C135.808 24.0154 135.794 23.9827 135.794 23.9486V3.50581C135.794 2.74519 136.1 2.01569 136.646 1.47762C137.192 0.939547 137.932 0.636924 138.704 0.636255Z" fill="#05668E"/>
</g>
<defs>
<clipPath id="clip0_171_1556">
<rect width="152" height="35" fill="white" transform="translate(0.5)"/>
</clipPath>
</defs>
</svg>
