<svg width="21" height="19" viewBox="0 0 21 19" fill="none" xmlns="http://www.w3.org/2000/svg">
<path d="M15.7083 14.5H15.7188M14.25 11.5H16.75C17.7207 11.5 18.206 11.5 18.589 11.6522C19.0994 11.8552 19.505 12.2446 19.7165 12.7346C19.875 13.1022 19.875 13.5681 19.875 14.5C19.875 15.4319 19.875 15.8978 19.7165 16.2654C19.505 16.7554 19.0994 17.1448 18.589 17.3478C18.206 17.5 17.7207 17.5 16.75 17.5H4.25C3.27929 17.5 2.79394 17.5 2.41107 17.3478C1.9006 17.1448 1.49503 16.7554 1.28358 16.2654C1.125 15.8978 1.125 15.4319 1.125 14.5C1.125 13.5681 1.125 13.1022 1.28358 12.7346C1.49503 12.2446 1.9006 11.8552 2.41107 11.6522C2.79394 11.5 3.27929 11.5 4.25 11.5H6.75M10.5 12.5V1.5M10.5 1.5L13.625 4.5M10.5 1.5L7.375 4.5" stroke="#083156" stroke-width="2" stroke-linecap="round" stroke-linejoin="round"/>
</svg>
